<svg t="1664765589495" class="icon" viewBox="0 0 1024 1024" version="1.1" xmlns="http://www.w3.org/2000/svg" p-id="3095" width="200" height="200">
    <path d="M320 597.333333a192 192 0 0 1-48-377.946666 21.333333 21.333333 0 0 1 10.666667 41.333333A149.226667 149.226667 0 0 0 170.666667 405.333333c0 82.34 66.993333 149.333333 149.333333 149.333334a149.906667 149.906667 0 0 0 37.333333-4.666667 21.333333 21.333333 0 1 1 10.666667 41.333333 192.386667 192.386667 0 0 1-48 6z m-192 320a21.333333 21.333333 0 0 0-21.333333-21.333333H53.333333a10.666667 10.666667 0 0 1-10.666666-10.666667v-21.333333c0-76.46 62.206667-138.666667 138.666666-138.666667h10.666667a21.333333 21.333333 0 0 0 0-42.666666h-10.666667A181.333333 181.333333 0 0 0 0 864v21.333333a53.393333 53.393333 0 0 0 53.333333 53.333334h53.333334a21.333333 21.333333 0 0 0 21.333333-21.333334z m896 10.666667v-32a213.333333 213.333333 0 0 0-213.333333-213.333333H384a213.333333 213.333333 0 0 0-213.333333 213.333333v32a53.393333 53.393333 0 0 0 53.333333 53.333333h746.666667a53.393333 53.393333 0 0 0 53.333333-53.333333z m-213.333333-202.666667c94.106667 0 170.666667 76.56 170.666666 170.666667v32a10.666667 10.666667 0 0 1-10.666666 10.666667H224a10.666667 10.666667 0 0 1-10.666667-10.666667v-32c0-94.106667 76.56-170.666667 170.666667-170.666667z m42.666666-426.666666c0 141.386667-114.613333 256-256 256S341.333333 440.053333 341.333333 298.666667 455.946667 42.666667 597.333333 42.666667s256 114.613333 256 256zM597.333333 85.333333c-117.82 0-213.333333 95.513333-213.333333 213.333334s95.513333 213.333333 213.333333 213.333333 213.333333-95.513333 213.333334-213.333333-95.513333-213.333333-213.333334-213.333334z"></path>
</svg>